<svg width="220" height="150" viewBox="0 0 220 150" fill="none" xmlns="http://www.w3.org/2000/svg">
<g clip-path="url(#clip0_176_6469)">
<path d="M212.575 0H118.152C114.626 0 112.332 2.59446 112.332 6.13054V103.548C112.332 107.074 114.626 110.189 118.152 110.189H212.575C216.101 110.189 219.517 107.074 219.517 103.548V6.13054C219.517 2.59446 216.101 0 212.575 0ZM204.491 47.081H190.467V72.6549C190.467 79.1761 193.522 82.3216 200.854 82.3216C202.076 82.3232 203.294 82.2024 204.491 81.9609V95.7046C201.838 96.0987 199.159 96.2929 196.477 96.2856C181.11 96.2856 172.436 87.5506 172.436 72.6549V47.081H154.404V72.6549C154.404 79.1761 157.961 82.3216 165.293 82.3216C166.68 82.3231 168.065 82.2024 169.43 81.9609V95.7046C166.777 96.0989 164.099 96.2931 161.417 96.2856C146.04 96.2856 137.375 87.5506 137.375 72.6549V47.081H126.356V32.0551H126.777C133.298 32.0551 137.375 28.7595 137.375 22.2483V13.0224H154.404V32.0551H161.927C168.449 32.0551 172.436 28.7595 172.436 22.2483V13.0224H190.467V32.0551H204.491V47.081Z" fill="#CF2026"/>
<path fill-rule="evenodd" clip-rule="evenodd" d="M41.1309 90.619C27.0466 67.0985 13.5834 44.5498 0 21.8507C15.1862 18.3948 16.9492 19.096 24.0414 30.8061C30.9233 42.2157 37.8151 53.6153 45.278 65.9766L99.7919 18.7354L101.114 20.0176L41.1309 90.619Z" fill="#CF2026"/>
<path fill-rule="evenodd" clip-rule="evenodd" d="M40.5605 47.5238L107.025 3.10742C107.346 3.46804 107.656 3.82866 108.027 4.17927C87.852 22.2704 67.7173 40.3415 46.8714 59.1037C44.5875 54.9065 42.6241 51.3003 40.5605 47.5238Z" fill="#CF2026"/>
<path fill-rule="evenodd" clip-rule="evenodd" d="M44.3965 95.5949L88.0316 42.6338L89.3939 43.5153L51.3284 107.115L44.3965 95.5949Z" fill="#CF2026"/>
<path d="M42.7602 148.026C41.0371 147.099 39.605 145.712 38.6231 144.019C37.6104 142.285 37.0908 140.307 37.1205 138.299C37.089 136.293 37.6124 134.317 38.6331 132.589C39.6266 130.899 41.0644 129.513 42.7903 128.582C44.4454 127.735 46.2628 127.252 48.1203 127.165C49.9777 127.079 51.8322 127.391 53.5588 128.082C54.988 128.673 56.2577 129.593 57.2652 130.766L54.6707 133.21C53.9466 132.397 53.0553 131.749 52.0577 131.312C51.0601 130.874 49.9799 130.657 48.8908 130.676C47.491 130.658 46.1106 131.003 44.8839 131.678C43.7343 132.305 42.7835 133.242 42.1391 134.382C41.4886 135.587 41.148 136.935 41.148 138.304C41.148 139.673 41.4886 141.021 42.1391 142.226C42.7835 143.366 43.7343 144.303 44.8839 144.931C46.1106 145.605 47.491 145.95 48.8908 145.932C49.9826 145.95 51.0651 145.73 52.0632 145.287C53.0614 144.844 53.9511 144.189 54.6707 143.368L57.2652 145.842C56.2495 147.015 54.9733 147.935 53.5388 148.527C51.9984 149.161 50.346 149.478 48.6804 149.458C46.6174 149.491 44.5801 148.998 42.7602 148.026Z" fill="#CF2026"/>
<path d="M107.218 144.147H96.3997L94.266 149.156H90.1289L99.8557 127.528H103.812L113.569 149.156H109.372L107.218 144.147ZM105.886 141.001L101.809 131.545L97.8021 141.001H105.886Z" fill="#CF2026"/>
<path d="M164.976 139.871C165.679 140.867 166.032 142.069 165.978 143.287C166.015 144.133 165.837 144.975 165.46 145.733C165.083 146.492 164.52 147.143 163.824 147.625C161.929 148.765 159.731 149.3 157.523 149.157H146.805V127.53H156.942C159.018 127.401 161.082 127.926 162.842 129.033C163.505 129.49 164.041 130.107 164.402 130.827C164.762 131.546 164.936 132.345 164.906 133.15C164.929 134.149 164.672 135.134 164.165 135.995C163.69 136.808 162.996 137.471 162.161 137.908C163.279 138.258 164.262 138.943 164.976 139.871ZM150.822 130.675V136.686H156.511C157.638 136.755 158.76 136.49 159.737 135.924C160.102 135.688 160.399 135.36 160.597 134.974C160.796 134.587 160.89 134.155 160.869 133.721C160.892 133.281 160.799 132.842 160.601 132.449C160.402 132.055 160.104 131.72 159.737 131.477C158.758 130.915 157.638 130.651 156.511 130.716L150.822 130.675ZM161.971 142.886C161.971 140.803 160.418 139.761 157.313 139.761H150.822V146.002H157.273C160.405 146.002 161.971 144.963 161.971 142.886Z" fill="#CF2026"/>
<path d="M206.05 148.755C204.705 148.387 203.45 147.746 202.363 146.872L203.756 143.746C204.734 144.5 205.836 145.08 207.011 145.459C208.257 145.897 209.567 146.124 210.888 146.13C212.136 146.214 213.383 145.944 214.484 145.349C214.842 145.151 215.141 144.86 215.351 144.508C215.56 144.156 215.673 143.755 215.676 143.346C215.683 143.058 215.627 142.772 215.513 142.507C215.399 142.243 215.229 142.006 215.015 141.813C214.522 141.39 213.95 141.07 213.332 140.871C212.651 140.651 211.719 140.391 210.547 140.1C209.187 139.798 207.849 139.406 206.54 138.928C205.527 138.545 204.624 137.915 203.916 137.095C203.146 136.139 202.754 134.935 202.814 133.709C202.816 132.545 203.165 131.408 203.816 130.443C204.547 129.4 205.567 128.592 206.751 128.119C208.276 127.498 209.913 127.201 211.559 127.248C212.874 127.25 214.183 127.418 215.456 127.749C216.626 128.03 217.741 128.507 218.752 129.161L217.469 132.226C216.528 131.672 215.517 131.245 214.464 130.954C213.486 130.678 212.475 130.533 211.459 130.524C210.224 130.439 208.991 130.717 207.913 131.325C207.555 131.553 207.261 131.868 207.059 132.242C206.857 132.615 206.755 133.034 206.761 133.459C206.752 133.744 206.807 134.028 206.921 134.289C207.035 134.551 207.206 134.784 207.422 134.971C207.916 135.389 208.488 135.706 209.105 135.903C209.786 136.123 210.718 136.384 211.89 136.674C213.234 136.966 214.556 137.351 215.847 137.826C216.857 138.226 217.759 138.857 218.481 139.669C219.252 140.605 219.645 141.795 219.583 143.005C219.588 144.164 219.238 145.296 218.581 146.251C217.83 147.301 216.784 148.106 215.576 148.565C214.048 149.186 212.407 149.483 210.758 149.436C209.164 149.436 207.578 149.206 206.05 148.755Z" fill="#CF2026"/>
</g>
<defs>
<clipPath id="clip0_176_6469">
<rect width="219.27" height="149.21" fill="white"/>
</clipPath>
</defs>
</svg>
