<svg width="1167" height="445" viewBox="0 0 1167 445" fill="none" xmlns="http://www.w3.org/2000/svg">
<path d="M0.0859375 52.1484H18.1523L22.791 93.6523H99.6953V115.625H24.9883V277.49C24.9883 311.182 37.3581 328.027 62.0977 328.027H99.6953V350H62.5859C20.9193 350 0.0859375 326.969 0.0859375 280.908V52.1484ZM154.383 350V93.6523H172.693L175.867 136.133C201.583 107.812 230.229 93.6523 261.805 93.6523V114.16C231.206 114.16 203.943 129.053 180.018 158.838V350H154.383ZM342.615 0.878906V30.1758H312.098V0.878906H342.615ZM340.174 93.6523V350H314.539V93.6523H340.174ZM386.805 93.6523H416.102L509.852 327.783L604.09 93.6523H633.387L524.256 350H494.471L386.805 93.6523ZM644.373 93.6523H673.914L769.129 325.098L862.879 93.6523H891.199L779.871 357.568C760.991 404.118 732.671 433.171 694.91 444.727L687.342 424.219C716.964 413.477 739.588 390.039 755.213 353.906L644.373 93.6523ZM952.479 220.85C952.479 293.929 983.81 330.469 1046.47 330.469C1109.14 330.469 1140.47 293.929 1140.47 220.85C1140.47 149.072 1109.14 113.184 1046.47 113.184C983.81 113.184 952.479 149.072 952.479 220.85ZM926.844 221.826C926.844 134.749 966.72 91.2109 1046.47 91.2109C1126.23 91.2109 1166.1 134.749 1166.1 221.826C1166.1 308.74 1126.23 352.197 1046.47 352.197C967.046 352.197 927.169 308.74 926.844 221.826Z" fill="white"/>
</svg>
