<svg width="207" height="79" viewBox="0 0 207 79" fill="none" xmlns="http://www.w3.org/2000/svg">
<path d="M30.5443 62.2341C32.2285 62.2341 33.5759 62.6832 34.5864 63.5814C35.0003 63.9472 35.2954 64.3161 35.4718 64.6882C35.6515 65.0571 35.7413 65.5223 35.7413 66.0837C35.7413 66.5104 35.5905 66.8745 35.289 67.176C34.9906 67.4744 34.6281 67.6235 34.2015 67.6235C33.7748 67.6235 33.4107 67.4744 33.1091 67.176C32.8108 66.8745 32.6616 66.5104 32.6616 66.0837C32.6616 65.8655 32.7049 65.6602 32.7915 65.4678C32.8782 65.2721 32.9985 65.102 33.1524 64.9577C32.9215 64.5278 32.6087 64.223 32.2141 64.0434C31.8227 63.8638 31.3303 63.7739 30.7368 63.7739C30.3486 63.7739 29.9877 63.8525 29.6541 64.0097C29.3237 64.1669 29.0366 64.3867 28.7928 64.669C28.5522 64.9513 28.3452 65.2849 28.172 65.6699C27.9988 66.0548 27.8689 66.4783 27.7822 66.9402C27.6988 67.399 27.6571 67.8834 27.6571 68.3935C27.6571 68.8971 27.7085 69.3815 27.8111 69.8467C27.9138 70.3118 28.0629 70.7353 28.2586 71.1171C28.4543 71.4988 28.6837 71.8324 28.9467 72.118C29.2098 72.4003 29.5114 72.62 29.8514 72.7772C30.1947 72.9344 30.554 73.013 30.9293 73.013C31.4747 73.013 31.9815 72.867 32.4499 72.5751C32.9215 72.2832 33.3112 71.8741 33.6192 71.348C33.9304 70.8187 34.1245 70.2188 34.2015 69.5483L35.7413 69.9333C35.6643 70.3086 35.5745 70.6583 35.4718 70.9823C35.3692 71.3031 35.2409 71.6239 35.0869 71.9447C34.9329 72.2623 34.7581 72.5494 34.5624 72.8061C34.3667 73.0627 34.1357 73.3017 33.8694 73.5231C33.6032 73.7444 33.3096 73.9305 32.9888 74.0813C32.668 74.2288 32.3007 74.3443 31.8869 74.4277C31.4731 74.5111 31.0255 74.5528 30.5443 74.5528C29.9701 74.5528 29.4215 74.4919 28.8986 74.37C28.3789 74.2513 27.9074 74.0845 27.4839 73.8695C27.0636 73.6546 26.6755 73.3979 26.3194 73.0996C25.9633 72.8013 25.6553 72.4724 25.3955 72.1131C25.1356 71.7506 24.9143 71.3673 24.7314 70.9631C24.5518 70.5557 24.417 70.137 24.3272 69.7071C24.2374 69.2741 24.1925 68.8362 24.1925 68.3935C24.1925 67.9508 24.2374 67.5145 24.3272 67.0846C24.417 66.6515 24.5518 66.2329 24.7314 65.8287C24.9143 65.4212 25.1356 65.0379 25.3955 64.6786C25.6553 64.3161 25.9633 63.9857 26.3194 63.6873C26.6755 63.389 27.0636 63.1323 27.4839 62.9174C27.9074 62.7025 28.3789 62.5356 28.8986 62.4169C29.4215 62.295 29.9701 62.2341 30.5443 62.2341ZM44.7879 68.5619V72.8205H45.7503V74.3604H42.7524L42.3241 73.3595C41.9969 73.8278 41.6168 74.1486 41.1837 74.3219C40.7538 74.4951 40.1523 74.5817 39.3792 74.5817C38.9782 74.5817 38.6045 74.5111 38.258 74.37C37.9147 74.232 37.6212 74.0428 37.3774 73.8022C37.1368 73.5616 36.9475 73.2728 36.8096 72.936C36.6748 72.5992 36.6075 72.2383 36.6075 71.8533C36.6075 71.1892 36.8673 70.6391 37.387 70.2028C37.9067 69.7633 38.5708 69.5435 39.3792 69.5435C40.0304 69.5435 40.5694 69.6061 40.996 69.7312C41.4227 69.8531 41.7884 70.0488 42.0932 70.3183V68.278C42.0932 67.9892 42.0531 67.7486 41.9729 67.5562C41.8959 67.3605 41.7788 67.2113 41.6216 67.1087C41.4644 67.0028 41.288 66.929 41.0923 66.8873C40.8966 66.8456 40.6624 66.8247 40.3897 66.8247C40.1716 66.8247 39.9743 66.8713 39.7978 66.9643C39.8973 67.1728 39.947 67.3926 39.947 67.6235C39.947 68.0502 39.7962 68.4143 39.4947 68.7159C39.1963 69.0142 38.8338 69.1634 38.4072 69.1634C37.9805 69.1634 37.6164 69.0142 37.3148 68.7159C37.0165 68.4143 36.8673 68.0502 36.8673 67.6235C36.8673 67.4054 36.909 67.2001 36.9924 67.0076C37.079 66.8151 37.1977 66.6467 37.3485 66.5023C37.4768 66.3676 37.61 66.2473 37.7479 66.1414C37.8859 66.0324 38.0591 65.9249 38.2676 65.819C38.4793 65.71 38.7087 65.6201 38.9557 65.5496C39.2027 65.479 39.4979 65.4228 39.8411 65.3811C40.1876 65.3362 40.5662 65.3138 40.9768 65.3138C41.5093 65.3138 42.0098 65.3924 42.4781 65.5496C42.9465 65.7068 43.3507 65.9249 43.6908 66.204C44.0308 66.4831 44.2987 66.8263 44.4944 67.2338C44.69 67.6412 44.7879 68.0839 44.7879 68.5619ZM42.0932 72.2238V71.5598C41.8943 71.3705 41.6697 71.2117 41.4195 71.0834C41.1725 70.9518 40.9431 70.8861 40.7314 70.8861C40.2758 70.8861 39.955 70.9631 39.769 71.1171C39.5829 71.2678 39.4899 71.5132 39.4899 71.8533C39.4899 72.2607 39.5701 72.5607 39.7305 72.7531C39.8909 72.9456 40.1892 73.0419 40.6255 73.0419C40.8725 73.0419 41.1292 72.9633 41.3954 72.8061C41.6649 72.6457 41.8975 72.4516 42.0932 72.2238ZM52.6411 65.3138C53.3918 65.3138 54.027 65.5046 54.5466 65.8864C55.0696 66.2649 55.4577 66.7975 55.7112 67.484C55.9678 68.1673 56.0961 68.9853 56.0961 69.9381C56.0961 70.6343 55.9999 71.2726 55.8074 71.8533C55.6149 72.4307 55.3487 72.9167 55.0086 73.3113C54.6718 73.7027 54.2676 74.0075 53.796 74.2256C53.3276 74.4438 52.8175 74.5528 52.2658 74.5528C52.0091 74.5528 51.7621 74.5304 51.5247 74.4855C51.2873 74.4406 51.0804 74.386 50.904 74.3219C50.7275 74.2545 50.5543 74.1695 50.3843 74.0668C50.2174 73.9642 50.0779 73.8695 49.9656 73.7829C49.8565 73.6963 49.7459 73.5936 49.6336 73.4749C49.5245 73.3562 49.4427 73.2632 49.3882 73.1958C49.3368 73.1285 49.2791 73.0499 49.2149 72.9601L48.2766 74.3604H47.0014V63.9664H46.039V62.4266H49.6961V66.9499C49.8277 66.7221 49.9817 66.5136 50.1581 66.3243C50.3345 66.135 50.5415 65.9634 50.7788 65.8094C51.0194 65.6522 51.2985 65.5303 51.6161 65.4437C51.9337 65.3571 52.2754 65.3138 52.6411 65.3138ZM49.6961 71.478C49.8662 71.8725 50.0875 72.1869 50.3602 72.4211C50.6329 72.6521 50.9553 72.7676 51.3274 72.7676C51.9626 72.7676 52.4342 72.519 52.7421 72.0217C53.0533 71.5245 53.2089 70.8187 53.2089 69.9044C53.2089 69.4746 53.1576 69.0784 53.0549 68.7159C52.9555 68.3501 52.8207 68.047 52.6507 67.8064C52.4839 67.5658 52.2914 67.3797 52.0733 67.2482C51.8551 67.1135 51.6274 67.0461 51.39 67.0461C51.0371 67.0461 50.7259 67.1552 50.4564 67.3733C50.1902 67.5882 49.9367 67.9107 49.6961 68.3405V71.478ZM59.8014 72.8253C59.9842 72.9504 60.2601 73.013 60.629 73.013C60.9595 73.013 61.2273 72.9937 61.4326 72.9552C61.6412 72.9167 61.7983 72.8542 61.9042 72.7676C62.0101 72.6778 62.0807 72.5799 62.1159 72.474C62.1512 72.365 62.1689 72.2238 62.1689 72.0506C62.1689 71.8453 62.1143 71.6688 62.0053 71.5213C61.8962 71.3737 61.7486 71.255 61.5626 71.1652C61.3765 71.0754 61.1632 70.9968 60.9226 70.9294C60.682 70.8588 60.4285 70.793 60.1623 70.7321C59.896 70.6679 59.6297 70.599 59.3635 70.5252C59.0972 70.4482 58.8438 70.3487 58.6032 70.2268C58.3626 70.1017 58.1492 69.9558 57.9632 69.7889C57.7771 69.6189 57.6295 69.3992 57.5205 69.1297C57.4114 68.8602 57.3569 68.5506 57.3569 68.201C57.3569 67.8802 57.3954 67.5882 57.4724 67.3252C57.5493 67.0621 57.652 66.8392 57.7803 66.6563C57.9086 66.4703 58.0706 66.3083 58.2663 66.1703C58.462 66.0324 58.6657 65.9217 58.8775 65.8383C59.0924 65.7549 59.333 65.6875 59.5993 65.6362C59.8687 65.5848 60.1286 65.5512 60.3788 65.5351C60.629 65.5159 60.9017 65.5063 61.1968 65.5063C61.8384 65.5063 62.3982 65.5881 62.8762 65.7517C63.3574 65.9153 63.736 66.135 64.0119 66.4109C64.1594 66.536 64.2733 66.6884 64.3535 66.868C64.4369 67.0445 64.4786 67.2322 64.4786 67.4311C64.4786 67.8032 64.3471 68.1208 64.0841 68.3838C63.821 68.6469 63.5034 68.7784 63.1313 68.7784C62.7591 68.7784 62.4416 68.6469 62.1785 68.3838C61.9154 68.1208 61.7839 67.8032 61.7839 67.4311C61.7839 67.2963 61.8032 67.1664 61.8417 67.0413C61.6588 66.9162 61.3829 66.8536 61.014 66.8536C60.5617 66.8536 60.2232 66.9081 59.9987 67.0172C59.7773 67.1263 59.6666 67.3284 59.6666 67.6235C59.6666 67.8096 59.7131 67.9748 59.8062 68.1192C59.8992 68.2603 60.0259 68.3774 60.1863 68.4704C60.3467 68.5603 60.5328 68.6469 60.7445 68.7303C60.9595 68.8105 61.1872 68.8795 61.4278 68.9372C61.6684 68.9918 61.9154 69.0591 62.1689 69.1393C62.4223 69.2195 62.6693 69.3013 62.9099 69.3847C63.1505 69.4681 63.3767 69.5788 63.5884 69.7168C63.8034 69.8515 63.991 70.0039 64.1514 70.1739C64.3118 70.3439 64.4385 70.5573 64.5316 70.8139C64.6246 71.0673 64.6711 71.3512 64.6711 71.6656C64.6711 72.1147 64.5957 72.5109 64.445 72.8542C64.2974 73.1942 64.0985 73.4701 63.8483 73.6819C63.6012 73.8936 63.2933 74.0668 62.9244 74.2016C62.5554 74.3331 62.1721 74.4245 61.7743 74.4758C61.3765 74.5272 60.9338 74.5528 60.4462 74.5528C59.4613 74.5528 58.6673 74.3652 58.0642 73.9898C57.4643 73.6145 57.1644 73.0964 57.1644 72.4355C57.1644 72.0634 57.2959 71.7458 57.559 71.4828C57.822 71.2197 58.1396 71.0882 58.5117 71.0882C58.8839 71.0882 59.2015 71.2197 59.4645 71.4828C59.7276 71.7458 59.8591 72.0634 59.8591 72.4355C59.8591 72.5703 59.8399 72.7002 59.8014 72.8253ZM78.3372 62.4266H84.4966V63.9664H82.9568V72.8205H84.4966V74.3604H78.3372V72.8205H79.8771V69.7408H75.6425V72.8205H77.1823V74.3604H71.023V72.8205H72.5628V63.9664H71.023V62.4266H77.1823V63.9664H75.6425V68.201H79.8771V63.9664H78.3372V62.4266ZM88.3703 65.6747C88.9349 65.4533 89.5332 65.3426 90.1652 65.3426C90.7971 65.3426 91.3938 65.4533 91.9552 65.6747C92.5198 65.896 93.0107 66.2056 93.4277 66.6034C93.8447 66.998 94.1736 67.4856 94.4142 68.0662C94.658 68.6469 94.7799 69.2789 94.7799 69.9622C94.7799 70.6455 94.658 71.2775 94.4142 71.8581C94.1736 72.4388 93.8447 72.928 93.4277 73.3258C93.0107 73.7204 92.5198 74.0283 91.9552 74.2497C91.3938 74.471 90.7971 74.5817 90.1652 74.5817C89.5332 74.5817 88.9349 74.471 88.3703 74.2497C87.8089 74.0283 87.3197 73.7204 86.9026 73.3258C86.4888 72.928 86.16 72.4388 85.9162 71.8581C85.6756 71.2775 85.5553 70.6455 85.5553 69.9622C85.5553 69.2789 85.6756 68.6469 85.9162 68.0662C86.16 67.4856 86.4888 66.998 86.9026 66.6034C87.3197 66.2056 87.8089 65.896 88.3703 65.6747ZM90.1652 66.8825C89.9406 66.8825 89.7401 66.9146 89.5637 66.9787C89.3872 67.0429 89.2252 67.1488 89.0776 67.2963C88.9301 67.4439 88.8082 67.6348 88.7119 67.8689C88.6189 68.1031 88.5451 68.3951 88.4906 68.7447C88.4393 69.0944 88.4136 69.5002 88.4136 69.9622C88.4136 70.4241 88.4393 70.8299 88.4906 71.1796C88.5451 71.5293 88.6189 71.8212 88.7119 72.0554C88.8082 72.2896 88.9301 72.4805 89.0776 72.628C89.2252 72.7756 89.3872 72.8815 89.5637 72.9456C89.7401 73.0098 89.9406 73.0419 90.1652 73.0419C90.4475 73.0419 90.6929 72.9889 90.9014 72.8831C91.1099 72.774 91.2912 72.6008 91.4452 72.3634C91.6023 72.126 91.7194 71.8068 91.7964 71.4058C91.8766 71.0048 91.9167 70.5236 91.9167 69.9622C91.9167 69.4008 91.8766 68.9196 91.7964 68.5186C91.7194 68.1176 91.6023 67.7984 91.4452 67.561C91.2912 67.3236 91.1099 67.152 90.9014 67.0461C90.6929 66.937 90.4475 66.8825 90.1652 66.8825ZM98.336 63.5814H99.2984V65.5063H101.993V67.0461H99.2984V72.0506C99.2984 72.2687 99.3593 72.4516 99.4812 72.5992C99.6063 72.7467 99.802 72.8205 100.068 72.8205C100.367 72.8205 100.62 72.7227 100.829 72.527C101.037 72.3281 101.169 72.041 101.223 71.6656L102.378 71.8581C102.33 72.2334 102.237 72.5815 102.099 72.9023C101.964 73.2199 101.788 73.5038 101.57 73.754C101.351 74.0011 101.08 74.1967 100.756 74.3411C100.436 74.4823 100.078 74.5528 99.6833 74.5528C98.7241 74.5528 97.9702 74.3299 97.4217 73.884C96.8763 73.4348 96.6036 72.8237 96.6036 72.0506V67.0461H95.6412V65.5063H95.8337C96.3277 65.5063 96.764 65.3651 97.1426 65.0828C97.5211 64.8005 97.9189 64.3 98.336 63.5814ZM106.122 70.5107C106.151 70.8829 106.212 71.2149 106.305 71.5068C106.398 71.7988 106.51 72.0378 106.641 72.2238C106.776 72.4099 106.932 72.5639 107.108 72.6858C107.285 72.8045 107.466 72.8895 107.652 72.9408C107.838 72.9889 108.037 73.013 108.249 73.013C108.926 73.013 109.453 72.8831 109.832 72.6232C110.214 72.3602 110.518 71.9559 110.746 71.4106L112.026 71.8533C111.911 72.1645 111.763 72.458 111.583 72.7339C111.407 73.0066 111.194 73.2584 110.943 73.4894C110.693 73.7204 110.414 73.9193 110.106 74.0861C109.801 74.2497 109.457 74.378 109.072 74.471C108.687 74.5641 108.281 74.6106 107.854 74.6106C107.222 74.6106 106.624 74.4999 106.059 74.2785C105.498 74.0572 105.009 73.7492 104.592 73.3546C104.178 72.9568 103.849 72.4676 103.605 71.887C103.365 71.3063 103.244 70.6744 103.244 69.991C103.244 69.3077 103.365 68.6726 103.605 68.0855C103.849 67.4984 104.178 67.0044 104.592 66.6034C105.009 66.1992 105.498 65.8832 106.059 65.6554C106.624 65.4277 107.222 65.3138 107.854 65.3138C108.486 65.3138 109.083 65.4277 109.644 65.6554C110.209 65.8832 110.698 66.1992 111.112 66.6034C111.529 67.0044 111.858 67.4984 112.098 68.0855C112.342 68.6726 112.464 69.3077 112.464 69.991L112.344 70.5107H106.122ZM106.155 68.9709H109.553C109.469 68.2331 109.285 67.6957 108.999 67.3589C108.714 67.022 108.335 66.8536 107.864 66.8536C107.63 66.8536 107.419 66.8921 107.233 66.9691C107.047 67.0429 106.88 67.1632 106.733 67.33C106.585 67.4936 106.462 67.7134 106.362 67.9892C106.266 68.2619 106.197 68.5891 106.155 68.9709ZM112.849 62.4266H116.506V72.8205H117.469V74.3604H112.849V72.8205H113.811V63.9664H112.849V62.4266ZM121.068 72.8253C121.251 72.9504 121.527 73.013 121.896 73.013C122.226 73.013 122.494 72.9937 122.699 72.9552C122.908 72.9167 123.065 72.8542 123.171 72.7676C123.277 72.6778 123.347 72.5799 123.382 72.474C123.418 72.365 123.435 72.2238 123.435 72.0506C123.435 71.8453 123.381 71.6688 123.272 71.5213C123.163 71.3737 123.015 71.255 122.829 71.1652C122.643 71.0754 122.43 70.9968 122.189 70.9294C121.948 70.8588 121.695 70.793 121.429 70.7321C121.163 70.6679 120.896 70.599 120.63 70.5252C120.364 70.4482 120.11 70.3487 119.87 70.2268C119.629 70.1017 119.416 69.9558 119.23 69.7889C119.044 69.6189 118.896 69.3992 118.787 69.1297C118.678 68.8602 118.623 68.5506 118.623 68.201C118.623 67.8802 118.662 67.5882 118.739 67.3252C118.816 67.0621 118.919 66.8392 119.047 66.6563C119.175 66.4703 119.337 66.3083 119.533 66.1703C119.729 66.0324 119.932 65.9217 120.144 65.8383C120.359 65.7549 120.6 65.6875 120.866 65.6362C121.135 65.5848 121.395 65.5512 121.645 65.5351C121.896 65.5159 122.168 65.5063 122.463 65.5063C123.105 65.5063 123.665 65.5881 124.143 65.7517C124.624 65.9153 125.003 66.135 125.278 66.4109C125.426 66.536 125.54 66.6884 125.62 66.868C125.703 67.0445 125.745 67.2322 125.745 67.4311C125.745 67.8032 125.614 68.1208 125.351 68.3838C125.088 68.6469 124.77 68.7784 124.398 68.7784C124.026 68.7784 123.708 68.6469 123.445 68.3838C123.182 68.1208 123.05 67.8032 123.05 67.4311C123.05 67.2963 123.07 67.1664 123.108 67.0413C122.925 66.9162 122.649 66.8536 122.281 66.8536C121.828 66.8536 121.49 66.9081 121.265 67.0172C121.044 67.1263 120.933 67.3284 120.933 67.6235C120.933 67.8096 120.98 67.9748 121.073 68.1192C121.166 68.2603 121.292 68.3774 121.453 68.4704C121.613 68.5603 121.799 68.6469 122.011 68.7303C122.226 68.8105 122.454 68.8795 122.694 68.9372C122.935 68.9918 123.182 69.0591 123.435 69.1393C123.689 69.2195 123.936 69.3013 124.176 69.3847C124.417 69.4681 124.643 69.5788 124.855 69.7168C125.07 69.8515 125.258 70.0039 125.418 70.1739C125.578 70.3439 125.705 70.5573 125.798 70.8139C125.891 71.0673 125.938 71.3512 125.938 71.6656C125.938 72.1147 125.862 72.5109 125.711 72.8542C125.564 73.1942 125.365 73.4701 125.115 73.6819C124.868 73.8936 124.56 74.0668 124.191 74.2016C123.822 74.3331 123.439 74.4245 123.041 74.4758C122.643 74.5272 122.2 74.5528 121.713 74.5528C120.728 74.5528 119.934 74.3652 119.331 73.9898C118.731 73.6145 118.431 73.0964 118.431 72.4355C118.431 72.0634 118.562 71.7458 118.825 71.4828C119.089 71.2197 119.406 71.0882 119.778 71.0882C120.15 71.0882 120.468 71.2197 120.731 71.4828C120.994 71.7458 121.126 72.0634 121.126 72.4355C121.126 72.5703 121.106 72.7002 121.068 72.8253ZM132.193 62.4266H143.357V66.2762H141.625V65.5063C141.625 65.3491 141.61 65.1871 141.582 65.0202C141.556 64.8534 141.514 64.6882 141.456 64.5246C141.402 64.361 141.322 64.2279 141.216 64.1252C141.11 64.0193 140.99 63.9664 140.855 63.9664H139.315V72.8205H140.855V74.3604H134.696V72.8205H136.235V63.9664H134.696C134.561 63.9664 134.44 64.0193 134.335 64.1252C134.229 64.2279 134.147 64.361 134.089 64.5246C134.035 64.6882 133.993 64.8534 133.964 65.0202C133.938 65.1871 133.926 65.3491 133.926 65.5063V66.2762H132.193V62.4266ZM146.365 65.6747C146.929 65.4533 147.528 65.3426 148.16 65.3426C148.791 65.3426 149.388 65.4533 149.95 65.6747C150.514 65.896 151.005 66.2056 151.422 66.6034C151.839 66.998 152.168 67.4856 152.409 68.0662C152.652 68.6469 152.774 69.2789 152.774 69.9622C152.774 70.6455 152.652 71.2775 152.409 71.8581C152.168 72.4388 151.839 72.928 151.422 73.3258C151.005 73.7204 150.514 74.0283 149.95 74.2497C149.388 74.471 148.791 74.5817 148.16 74.5817C147.528 74.5817 146.929 74.471 146.365 74.2497C145.803 74.0283 145.314 73.7204 144.897 73.3258C144.483 72.928 144.154 72.4388 143.911 71.8581C143.67 71.2775 143.55 70.6455 143.55 69.9622C143.55 69.2789 143.67 68.6469 143.911 68.0662C144.154 67.4856 144.483 66.998 144.897 66.6034C145.314 66.2056 145.803 65.896 146.365 65.6747ZM148.16 66.8825C147.935 66.8825 147.734 66.9146 147.558 66.9787C147.382 67.0429 147.22 67.1488 147.072 67.2963C146.924 67.4439 146.803 67.6348 146.706 67.8689C146.613 68.1031 146.539 68.3951 146.485 68.7447C146.434 69.0944 146.408 69.5002 146.408 69.9622C146.408 70.4241 146.434 70.8299 146.485 71.1796C146.539 71.5293 146.613 71.8212 146.706 72.0554C146.803 72.2896 146.924 72.4805 147.072 72.628C147.22 72.7756 147.382 72.8815 147.558 72.9456C147.734 73.0098 147.935 73.0419 148.16 73.0419C148.442 73.0419 148.687 72.9889 148.896 72.8831C149.104 72.774 149.286 72.6008 149.44 72.3634C149.597 72.126 149.714 71.8068 149.791 71.4058C149.871 71.0048 149.911 70.5236 149.911 69.9622C149.911 69.4008 149.871 68.9196 149.791 68.5186C149.714 68.1176 149.597 67.7984 149.44 67.561C149.286 67.3236 149.104 67.152 148.896 67.0461C148.687 66.937 148.442 66.8825 148.16 66.8825ZM153.636 65.5063H157.293V70.8957C157.293 71.4026 157.338 71.7972 157.427 72.0795C157.52 72.3618 157.652 72.5558 157.822 72.6617C157.995 72.7676 158.229 72.8205 158.525 72.8205C158.794 72.8205 159.07 72.7066 159.352 72.4789C159.638 72.2511 159.907 71.9335 160.161 71.5261L160.18 67.0461H159.218V65.5063H162.875V72.8205H163.837V74.3604H160.849L160.175 73.0515C159.633 74.0524 158.736 74.5528 157.485 74.5528C157.036 74.5528 156.643 74.4919 156.306 74.37C155.969 74.2481 155.694 74.0813 155.479 73.8695C155.264 73.6546 155.089 73.3835 154.954 73.0563C154.823 72.7259 154.73 72.373 154.675 71.9977C154.624 71.6191 154.598 71.1876 154.598 70.7032V67.0461H153.636V65.5063ZM164.607 65.5063H167.595L168.202 66.6756C168.769 65.7677 169.573 65.3138 170.612 65.3138C171.309 65.3138 171.86 65.5287 172.268 65.9586C172.678 66.3852 172.884 66.9402 172.884 67.6235C172.884 68.0502 172.733 68.4143 172.431 68.7159C172.133 69.0142 171.77 69.1634 171.344 69.1634C170.917 69.1634 170.553 69.0142 170.251 68.7159C169.953 68.4143 169.804 68.0502 169.804 67.6235C169.804 67.4503 169.831 67.2835 169.886 67.1231C169.799 67.0718 169.708 67.0461 169.611 67.0461C169.397 67.0461 169.174 67.1872 168.943 67.4696C168.715 67.7486 168.495 68.1673 168.283 68.7255L168.264 72.8205H170.381V74.3604H164.607V72.8205H165.569V67.0461H164.607V65.5063ZM176.483 72.8253C176.666 72.9504 176.942 73.013 177.311 73.013C177.641 73.013 177.909 72.9937 178.114 72.9552C178.323 72.9167 178.48 72.8542 178.586 72.7676C178.692 72.6778 178.762 72.5799 178.798 72.474C178.833 72.365 178.851 72.2238 178.851 72.0506C178.851 71.8453 178.796 71.6688 178.687 71.5213C178.578 71.3737 178.43 71.255 178.244 71.1652C178.058 71.0754 177.845 70.9968 177.604 70.9294C177.364 70.8588 177.11 70.793 176.844 70.7321C176.578 70.6679 176.311 70.599 176.045 70.5252C175.779 70.4482 175.525 70.3487 175.285 70.2268C175.044 70.1017 174.831 69.9558 174.645 69.7889C174.459 69.6189 174.311 69.3992 174.202 69.1297C174.093 68.8602 174.039 68.5506 174.039 68.201C174.039 67.8802 174.077 67.5882 174.154 67.3252C174.231 67.0621 174.334 66.8392 174.462 66.6563C174.59 66.4703 174.752 66.3083 174.948 66.1703C175.144 66.0324 175.347 65.9217 175.559 65.8383C175.774 65.7549 176.015 65.6875 176.281 65.6362C176.55 65.5848 176.81 65.5512 177.06 65.5351C177.311 65.5159 177.583 65.5063 177.879 65.5063C178.52 65.5063 179.08 65.5881 179.558 65.7517C180.039 65.9153 180.418 66.135 180.694 66.4109C180.841 66.536 180.955 66.6884 181.035 66.868C181.119 67.0445 181.16 67.2322 181.16 67.4311C181.16 67.8032 181.029 68.1208 180.766 68.3838C180.503 68.6469 180.185 68.7784 179.813 68.7784C179.441 68.7784 179.123 68.6469 178.86 68.3838C178.597 68.1208 178.466 67.8032 178.466 67.4311C178.466 67.2963 178.485 67.1664 178.523 67.0413C178.34 66.9162 178.065 66.8536 177.696 66.8536C177.243 66.8536 176.905 66.9081 176.68 67.0172C176.459 67.1263 176.348 67.3284 176.348 67.6235C176.348 67.8096 176.395 67.9748 176.488 68.1192C176.581 68.2603 176.708 68.3774 176.868 68.4704C177.028 68.5603 177.214 68.6469 177.426 68.7303C177.641 68.8105 177.869 68.8795 178.109 68.9372C178.35 68.9918 178.597 69.0591 178.851 69.1393C179.104 69.2195 179.351 69.3013 179.592 69.3847C179.832 69.4681 180.058 69.5788 180.27 69.7168C180.485 69.8515 180.673 70.0039 180.833 70.1739C180.993 70.3439 181.12 70.5573 181.213 70.8139C181.306 71.0673 181.353 71.3512 181.353 71.6656C181.353 72.1147 181.277 72.5109 181.127 72.8542C180.979 73.1942 180.78 73.4701 180.53 73.6819C180.283 73.8936 179.975 74.0668 179.606 74.2016C179.237 74.3331 178.854 74.4245 178.456 74.4758C178.058 74.5272 177.615 74.5528 177.128 74.5528C176.143 74.5528 175.349 74.3652 174.746 73.9898C174.146 73.6145 173.846 73.0964 173.846 72.4355C173.846 72.0634 173.978 71.7458 174.241 71.4828C174.504 71.2197 174.821 71.0882 175.193 71.0882C175.566 71.0882 175.883 71.2197 176.146 71.4828C176.409 71.7458 176.541 72.0634 176.541 72.4355C176.541 72.5703 176.522 72.7002 176.483 72.8253Z" fill="#4B5563"/>
<path d="M0 4H2.19L10.44 29.53C12.12 34.82 13.28 38.68 15.08 43.91H15.34C17.15 38.68 18.34 34.82 19.98 29.53L28.23 4H30.3L16.24 46.51H14.18L0 4Z" fill="#003787"/>
<path d="M37.5199 38.3902V17.5002H32.6099V16.0002L37.5099 15.7402L37.7699 6.74023H39.4399V15.7402H48.6099V17.5002H39.4499V38.6402C39.4499 42.6402 40.3499 45.4802 44.8699 45.4802C46.2524 45.3895 47.6073 45.0508 48.8699 44.4802L49.5199 46.1502C47.9915 46.7566 46.386 47.147 44.7499 47.3102C39.0699 47.2802 37.5199 43.6702 37.5199 38.3902Z" fill="#003787"/>
<path d="M55.6998 38.3902V17.5002H50.7998V16.0002L55.6998 15.7402L55.9598 6.74023H57.6098V15.7402H66.7698V17.5002H57.6098V38.6402C57.6098 42.6402 58.5098 45.4802 63.0298 45.4802C64.4123 45.3895 65.7672 45.0508 67.0298 44.4802L67.6798 46.1502C66.1514 46.7566 64.546 47.147 62.9098 47.3102C57.2398 47.2802 55.6998 43.6702 55.6998 38.3902Z" fill="#003787"/>
<path d="M84.8398 25.1104C84.8398 11.7004 91.9298 3.19043 102.76 3.19043C104.82 3.18917 106.855 3.63568 108.725 4.49902C110.595 5.36237 112.255 6.62193 113.59 8.19043L112.3 9.60043C111.143 8.18959 109.686 7.05321 108.037 6.2733C106.387 5.49339 104.585 5.08938 102.76 5.09043C92.9598 5.09043 87.0298 12.8304 87.0298 25.0904C87.0298 37.3504 92.9598 45.3304 102.5 45.3304C107.01 45.3304 110.37 43.5204 113.59 39.9104L114.88 41.2004C111.66 44.9404 107.88 47.2604 102.37 47.2604C91.9298 47.2804 84.8398 38.5204 84.8398 25.1104Z" fill="#003787"/>
<path d="M121.33 39.0002C121.33 32.1002 127.64 28.8802 141.57 27.3302C141.7 22.3302 140.41 16.7602 133.96 16.7602C130.311 16.8885 126.802 18.1974 123.96 20.4902L122.96 18.9502C126.204 16.5031 130.12 15.1073 134.18 14.9502C141.4 14.9502 143.59 20.3702 143.59 26.5502V46.5502H141.92L141.61 42.3802H141.48C138.26 44.9602 134.39 47.2802 130.26 47.2802C125.45 47.2802 121.33 44.8302 121.33 39.0002ZM141.61 40.1902V29.0002C128.07 30.5502 123.43 33.6502 123.43 38.9302C123.43 43.7002 126.65 45.5102 130.43 45.5102C134.21 45.5102 137.44 43.6702 141.61 40.1902Z" fill="#003787"/>
<path d="M157.04 43.42H156.91L156.66 46.51H154.98V0H156.91V13.8L156.78 20C160.01 17.29 163.88 15 167.78 15C176.17 15 180.16 21.19 180.16 30.73C180.16 41.17 173.84 47.36 166.49 47.36C163.49 47.28 160.01 45.74 157.04 43.42ZM178.04 30.65C178.04 22.79 175.2 16.73 167.6 16.73C164.37 16.73 160.76 18.66 156.89 22.14V41.22C160.5 44.32 164.11 45.48 166.56 45.48C173.29 45.48 178.06 39.29 178.06 30.65H178.04Z" fill="#003787"/>
<path d="M185.67 42.9999L186.96 41.4499C189.662 44.0404 193.267 45.4753 197.01 45.4499C202.17 45.4499 204.88 42.3499 204.88 38.8699C204.88 34.7499 200.75 32.9399 197.14 31.6499C192.37 29.9799 187.09 28.1699 187.09 22.8799C187.09 18.6299 190.44 14.8799 196.76 14.8799C199.863 14.952 202.855 16.049 205.27 17.9999L204.11 19.5499C202.015 17.7639 199.362 16.7663 196.61 16.7299C191.45 16.7299 189.13 19.7299 189.13 22.7899C189.13 26.5199 192.87 27.9399 196.61 29.3599C201.51 31.2299 206.92 32.7099 206.92 38.7699C206.92 43.2899 203.31 47.2799 196.86 47.2799C192.738 47.2368 188.768 45.7184 185.67 42.9999Z" fill="#003787"/>
</svg>
