<svg width="323" height="323" viewBox="0 0 323 323" fill="none" xmlns="http://www.w3.org/2000/svg">
<rect width="322.518" height="322.518" rx="21" fill="#0B0A12"/>
<path d="M263.633 62.4081H170.003C169.176 62.4094 168.357 62.5744 167.594 62.8937C166.831 63.213 166.138 63.6802 165.556 64.2685C164.975 64.8567 164.515 65.5542 164.204 66.3209C163.894 67.0876 163.738 67.9082 163.745 68.7355V165.345C163.738 166.172 163.894 166.993 164.204 167.759C164.515 168.526 164.975 169.224 165.556 169.812C166.138 170.4 166.831 170.867 167.594 171.187C168.357 171.506 169.176 171.671 170.003 171.672H263.633C265.318 171.675 266.936 171.011 268.135 169.826C269.333 168.641 270.014 167.03 270.03 165.345V68.7355C270.014 67.0502 269.333 65.4394 268.135 64.2542C266.936 63.069 265.318 62.4054 263.633 62.4081ZM255.13 109.094H241.224V134.711C241.224 141.178 244.253 144.287 251.524 144.287C252.735 144.292 253.943 144.175 255.13 143.939V157.567C252.499 157.953 249.843 158.145 247.184 158.143C231.946 158.143 223.344 149.482 223.344 134.711V109.094H205.464V134.711C205.464 141.178 208.991 144.287 216.262 144.287C217.637 144.291 219.01 144.175 220.364 143.939V157.567C217.733 157.953 215.077 158.146 212.418 158.143C197.18 158.143 188.578 149.482 188.578 134.711V109.094H177.652V94.194H178.556C185.022 94.194 188.578 91.2141 188.578 84.7179V75.3212H205.464V94.194H213.411C219.877 94.194 223.344 91.2141 223.344 84.7179V75.3212H241.224V94.194H255.13V109.094Z" fill="white"/>
<path fill-rule="evenodd" clip-rule="evenodd" d="M93.6274 152.544L52.842 84.3437C67.9006 80.9267 69.6489 81.622 76.6815 93.2835C83.5056 104.587 90.3395 115.891 97.7397 128.159C115.947 112.305 133.866 96.7799 151.796 81.2843L153.107 82.5557L93.6274 152.544Z" fill="white"/>
<path fill-rule="evenodd" clip-rule="evenodd" d="M93.0387 109.791L158.945 65.7472L159.938 66.8101L99.3462 121.243C97.0318 117.111 95.0849 113.535 93.0387 109.791Z" fill="white"/>
<path fill-rule="evenodd" clip-rule="evenodd" d="M96.8494 157.465L140.118 104.948L141.469 105.823L103.723 168.888L96.8494 157.465Z" fill="white"/>
<path d="M76.6617 209.411C74.953 208.492 73.5329 207.116 72.5593 205.438C71.5551 203.719 71.0399 201.757 71.0693 199.766C71.0381 197.777 71.5571 195.817 72.5692 194.104C73.5544 192.428 74.9801 191.054 76.6915 190.131C78.3327 189.291 80.1348 188.812 81.9767 188.726C83.8186 188.64 85.6574 188.95 87.3696 189.634C88.7867 190.221 90.0458 191.133 91.0448 192.297L88.4721 194.81C87.7529 194.004 86.8688 193.363 85.8799 192.929C84.891 192.496 83.8204 192.28 82.7407 192.297C81.3528 192.279 79.9839 192.621 78.7675 193.29C77.6247 193.908 76.6809 194.838 76.0458 195.972C75.4007 197.166 75.063 198.503 75.063 199.861C75.063 201.218 75.4007 202.555 76.0458 203.749C76.6848 204.88 77.6276 205.809 78.7675 206.431C79.9839 207.1 81.3528 207.442 82.7407 207.425C83.8234 207.442 84.8968 207.224 85.8866 206.785C86.8763 206.346 87.7586 205.696 88.4721 204.882L91.0448 207.335C90.0376 208.499 88.7722 209.41 87.3497 209.997C85.8216 210.623 84.1831 210.934 82.5321 210.911C80.4795 210.919 78.4588 210.403 76.6617 209.411Z" fill="white"/>
<path d="M140.52 205.608H129.792L127.676 210.574H123.574L133.219 189.129H137.142L146.817 210.574H142.655L140.52 205.608ZM139.189 202.469L135.146 193.092L131.173 202.469H139.189Z" fill="white"/>
<path d="M197.818 201.37C198.52 202.356 198.869 203.549 198.811 204.757C198.848 205.596 198.671 206.431 198.298 207.183C197.924 207.935 197.366 208.58 196.676 209.058C194.796 210.19 192.617 210.72 190.428 210.578H179.799V189.133H189.852C191.908 189.007 193.953 189.524 195.702 190.613C196.36 191.068 196.893 191.681 197.253 192.396C197.612 193.111 197.786 193.905 197.758 194.705C197.776 195.695 197.522 196.671 197.023 197.526C196.547 198.328 195.86 198.984 195.037 199.423C196.141 199.772 197.112 200.452 197.818 201.37ZM183.782 192.252V198.211H189.425C190.541 198.276 191.653 198.013 192.623 197.457C192.984 197.222 193.278 196.896 193.475 196.513C193.672 196.13 193.765 195.702 193.745 195.271C193.769 194.835 193.678 194.399 193.481 194.009C193.284 193.619 192.988 193.287 192.623 193.046C191.653 192.489 190.541 192.227 189.425 192.291L183.782 192.252ZM194.838 204.36C194.838 202.294 193.298 201.261 190.219 201.261H183.782V207.439H190.179C193.285 207.439 194.838 206.413 194.838 204.36Z" fill="white"/>
<path d="M238.552 210.163C237.218 209.805 235.973 209.172 234.897 208.306L236.277 205.207C237.249 205.952 238.341 206.527 239.506 206.905C240.741 207.336 242.041 207.558 243.35 207.561C244.587 207.647 245.823 207.382 246.916 206.796C247.271 206.599 247.567 206.311 247.775 205.962C247.983 205.613 248.094 205.215 248.098 204.809C248.104 204.524 248.049 204.24 247.936 203.978C247.823 203.716 247.654 203.481 247.442 203.29C246.955 202.868 246.387 202.551 245.773 202.356C245.098 202.127 244.174 201.879 243.012 201.591C241.664 201.289 240.337 200.9 239.039 200.429C238.031 200.049 237.135 199.42 236.436 198.601C235.669 197.66 235.279 196.467 235.344 195.254C235.345 194.099 235.69 192.972 236.337 192.015C237.065 190.98 238.075 190.177 239.247 189.701C240.761 189.093 242.384 188.802 244.015 188.847C245.319 188.845 246.617 189.009 247.879 189.334C249.039 189.62 250.143 190.096 251.147 190.744L249.896 193.843C248.962 193.294 247.96 192.87 246.916 192.582C245.946 192.308 244.944 192.164 243.936 192.155C242.714 192.069 241.495 192.345 240.429 192.949C240.072 193.173 239.777 193.485 239.576 193.856C239.374 194.227 239.271 194.643 239.277 195.065C239.268 195.348 239.322 195.629 239.436 195.889C239.549 196.148 239.719 196.379 239.933 196.565C240.423 196.979 240.99 197.293 241.601 197.489C242.277 197.707 243.201 197.965 244.363 198.253C245.696 198.543 247.007 198.925 248.286 199.396C249.29 199.789 250.186 200.415 250.899 201.223C251.665 202.15 252.055 203.331 251.991 204.531C251.995 205.68 251.649 206.803 250.998 207.75C250.253 208.791 249.216 209.59 248.018 210.044C246.502 210.657 244.875 210.947 243.24 210.898C241.65 210.885 240.07 210.638 238.552 210.163Z" fill="white"/>
<rect x="71.0635" y="231.411" width="180.847" height="39.6315" rx="10" fill="white"/>
<path d="M91.7878 240.977L96.7071 256.552H96.896L101.825 240.977H106.596L99.5792 261.477H94.0338L87.0076 240.977H91.7878Z" fill="#0B0A12"/>
<path d="M116.161 261.477V240.977H129.334V244.551H120.294V249.435H128.656V253.009H120.294V257.903H129.372V261.477H116.161Z" fill="#0B0A12"/>
<path d="M155.337 240.977V261.477H151.757L143.227 248.575H143.084V261.477H138.938V240.977H142.576L151.039 253.869H151.211V240.977H155.337Z" fill="#0B0A12"/>
<path d="M172.368 261.477H164.904V240.977H172.429C174.547 240.977 176.37 241.388 177.899 242.209C179.427 243.023 180.603 244.194 181.425 245.722C182.255 247.25 182.669 249.078 182.669 251.207C182.669 253.342 182.255 255.177 181.425 256.712C180.603 258.247 179.421 259.425 177.878 260.245C176.343 261.066 174.506 261.477 172.368 261.477ZM169.355 257.763H172.183C173.499 257.763 174.606 257.536 175.503 257.082C176.408 256.622 177.087 255.911 177.539 254.95C177.998 253.983 178.228 252.735 178.228 251.207C178.228 249.692 177.998 248.454 177.539 247.494C177.087 246.533 176.412 245.825 175.514 245.372C174.616 244.918 173.509 244.691 172.193 244.691H169.355V257.763Z" fill="#0B0A12"/>
<path d="M210.913 251.227C210.913 253.5 210.501 255.433 209.676 257.027C208.858 258.622 207.742 259.839 206.326 260.68C204.918 261.515 203.334 261.932 201.574 261.932C199.802 261.932 198.212 261.511 196.803 260.67C195.394 259.829 194.281 258.611 193.463 257.017C192.645 255.423 192.236 253.493 192.236 251.227C192.236 248.954 192.645 247.021 193.463 245.427C194.281 243.833 195.394 242.618 196.803 241.784C198.212 240.943 199.802 240.522 201.574 240.522C203.334 240.522 204.918 240.943 206.326 241.784C207.742 242.618 208.858 243.833 209.676 245.427C210.501 247.021 210.913 248.954 210.913 251.227ZM206.638 251.227C206.638 249.755 206.427 248.513 206.005 247.503C205.59 246.492 205.002 245.725 204.243 245.203C203.483 244.681 202.594 244.419 201.574 244.419C200.555 244.419 199.666 244.681 198.906 245.203C198.147 245.725 197.556 246.492 197.134 247.503C196.719 248.513 196.511 249.755 196.511 251.227C196.511 252.699 196.719 253.941 197.134 254.951C197.556 255.962 198.147 256.729 198.906 257.251C199.666 257.774 200.555 258.035 201.574 258.035C202.594 258.035 203.483 257.774 204.243 257.251C205.002 256.729 205.59 255.962 206.005 254.951C206.427 253.941 206.638 252.699 206.638 251.227Z" fill="#0B0A12"/>
<path d="M220.479 261.477V240.977H228.228C229.711 240.977 230.977 241.254 232.026 241.808C233.081 242.355 233.883 243.133 234.433 244.14C234.989 245.141 235.267 246.319 235.267 247.674C235.267 249.035 234.986 250.206 234.423 251.187C233.861 252.161 233.045 252.909 231.978 253.429C230.916 253.95 229.631 254.21 228.122 254.21H222.934V250.727H227.451C228.244 250.727 228.902 250.613 229.427 250.386C229.951 250.159 230.341 249.819 230.597 249.365C230.859 248.912 230.99 248.348 230.99 247.674C230.99 246.993 230.859 246.419 230.597 245.952C230.341 245.485 229.948 245.131 229.417 244.891C228.893 244.644 228.231 244.521 227.432 244.521H224.632V261.477H220.479ZM231.086 252.148L235.967 261.477H231.383L226.607 252.148H231.086Z" fill="#0B0A12"/>
</svg>
