<svg width="477" height="458" viewBox="0 0 477 458" fill="none" xmlns="http://www.w3.org/2000/svg">
<path d="M462.733 1.79435e-05H257.195C255.379 0.00281397 253.581 0.365118 251.906 1.06604C250.231 1.76696 248.71 2.79262 247.433 4.08388C246.156 5.37514 245.148 6.90645 244.465 8.5895C243.783 10.2725 243.44 12.074 243.458 13.8901V225.969C243.44 227.785 243.783 229.587 244.465 231.27C245.148 232.953 246.156 234.484 247.433 235.776C248.71 237.067 250.231 238.092 251.906 238.793C253.581 239.494 255.379 239.857 257.195 239.859H462.733C466.433 239.865 469.985 238.409 472.615 235.807C475.246 233.205 476.741 229.669 476.776 225.969V13.8901C476.741 10.1904 475.246 6.6544 472.615 4.05259C469.985 1.45078 466.433 -0.00589704 462.733 1.79435e-05ZM444.068 102.485H413.54V158.722C413.54 172.917 420.191 179.742 436.152 179.742C438.809 179.753 441.461 179.497 444.068 178.979V208.896C438.291 209.742 432.461 210.165 426.623 210.16C393.174 210.16 374.29 191.146 374.29 158.722V102.485H335.04V158.722C335.04 172.917 342.781 179.742 358.743 179.742C361.761 179.752 364.775 179.497 367.749 178.979V208.896C361.972 209.743 356.142 210.166 350.304 210.16C316.855 210.16 297.971 191.146 297.971 158.722V102.485H273.985V69.7773H275.97C290.165 69.7773 297.971 63.2357 297.971 48.9749V28.347H335.04V69.7773H352.485C366.68 69.7773 374.29 63.2357 374.29 48.9749V28.347H413.54V69.7773H444.068V102.485Z" fill="#CF2026"/>
<path fill-rule="evenodd" clip-rule="evenodd" d="M89.5331 197.869L0 48.1536C33.057 40.6525 36.8948 42.1789 52.333 67.7784C67.3133 92.593 82.3155 117.408 98.5605 144.337C138.53 109.536 177.867 75.4539 217.226 41.4375L220.104 44.2286L89.5331 197.869Z" fill="#CF2026"/>
<path fill-rule="evenodd" clip-rule="evenodd" d="M88.2402 104.015L232.919 7.33008L235.1 9.66326L102.087 129.157C97.006 120.086 92.7322 112.236 88.2402 104.015Z" fill="#CF2026"/>
<path fill-rule="evenodd" clip-rule="evenodd" d="M96.6055 208.671L191.59 93.3857L194.555 95.3046L111.695 233.747L96.6055 208.671Z" fill="#CF2026"/>
<path d="M52.2891 322.705C48.5383 320.687 45.4209 317.667 43.2835 313.983C41.0791 310.208 39.948 305.903 40.0127 301.532C39.9441 297.165 41.0835 292.863 43.3053 289.103C45.468 285.423 48.5978 282.407 52.3546 280.381C55.9574 278.536 59.9136 277.484 63.9569 277.296C68.0002 277.108 72.0369 277.788 75.7954 279.291C78.9064 280.578 81.6703 282.58 83.8634 285.134L78.2158 290.651C76.6369 288.883 74.6961 287.476 72.5253 286.524C70.3544 285.572 68.0042 285.098 65.6341 285.134C62.5871 285.096 59.5822 285.847 56.9119 287.315C54.4032 288.672 52.3314 290.714 50.9372 293.202C49.5211 295.825 48.7797 298.759 48.7797 301.739C48.7797 304.72 49.5211 307.653 50.9372 310.276C52.3399 312.758 54.4096 314.797 56.9119 316.163C59.5822 317.631 62.5871 318.383 65.6341 318.344C68.0107 318.382 70.3672 317.903 72.5399 316.939C74.7126 315.975 76.6494 314.55 78.2158 312.762L83.8634 318.148C81.6524 320.702 78.8745 322.703 75.7518 323.992C72.3973 325.365 68.8004 326.047 65.1761 325.998C60.6701 326.016 56.2342 324.882 52.2891 322.705Z" fill="#CF2026"/>
<path d="M192.472 314.356H168.922L164.277 325.259H155.271L176.445 278.181H185.058L206.296 325.259H197.16L192.472 314.356ZM189.55 307.465L180.675 286.881L171.953 307.465H189.55Z" fill="#CF2026"/>
<path d="M318.254 305.053C319.795 307.217 320.563 309.836 320.435 312.489C320.515 314.331 320.128 316.163 319.308 317.814C318.488 319.465 317.263 320.881 315.747 321.931C311.621 324.414 306.836 325.578 302.031 325.267H278.699V278.189H300.766C305.281 277.914 309.769 279.049 313.61 281.438C315.054 282.438 316.224 283.784 317.013 285.354C317.802 286.923 318.184 288.666 318.123 290.422C318.163 292.595 317.605 294.737 316.51 296.614C315.464 298.375 313.956 299.815 312.149 300.779C314.574 301.545 316.705 303.036 318.254 305.053ZM287.443 285.036V298.119H299.829C302.28 298.26 304.72 297.684 306.85 296.462C307.643 295.946 308.288 295.232 308.72 294.391C309.152 293.549 309.357 292.61 309.314 291.665C309.366 290.706 309.165 289.751 308.733 288.894C308.301 288.037 307.652 287.308 306.85 286.78C304.72 285.558 302.28 284.982 299.829 285.123L287.443 285.036ZM311.713 311.617C311.713 307.081 308.333 304.813 301.573 304.813H287.443V318.376H301.486C308.304 318.376 311.713 316.123 311.713 311.617Z" fill="#CF2026"/>
<path d="M407.675 324.356C404.746 323.57 402.012 322.181 399.65 320.278L402.681 313.475C404.815 315.112 407.211 316.373 409.768 317.204C412.481 318.15 415.333 318.637 418.207 318.643C420.922 318.831 423.636 318.249 426.035 316.964C426.815 316.532 427.466 315.9 427.922 315.134C428.378 314.368 428.622 313.494 428.63 312.603C428.644 311.976 428.523 311.353 428.274 310.778C428.026 310.202 427.656 309.687 427.191 309.267C426.121 308.342 424.875 307.645 423.527 307.217C422.045 306.715 420.017 306.17 417.465 305.538C414.507 304.874 411.593 304.022 408.743 302.987C406.531 302.153 404.565 300.773 403.03 298.974C401.345 296.908 400.49 294.288 400.632 291.626C400.634 289.092 401.393 286.617 402.812 284.517C404.41 282.245 406.628 280.481 409.201 279.437C412.525 278.102 416.087 277.464 419.668 277.562C422.529 277.558 425.379 277.917 428.15 278.63C430.696 279.258 433.12 280.304 435.324 281.726L432.577 288.53C430.527 287.323 428.328 286.392 426.035 285.76C423.906 285.159 421.706 284.844 419.493 284.823C416.812 284.635 414.135 285.242 411.796 286.567C411.011 287.058 410.365 287.744 409.922 288.558C409.479 289.371 409.253 290.285 409.267 291.212C409.247 291.833 409.366 292.451 409.615 293.02C409.864 293.59 410.237 294.097 410.706 294.504C411.782 295.414 413.027 296.103 414.369 296.532C415.852 297.012 417.88 297.579 420.431 298.211C423.356 298.847 426.234 299.685 429.044 300.719C431.248 301.581 433.214 302.956 434.779 304.731C436.46 306.765 437.316 309.357 437.178 311.992C437.186 314.514 436.425 316.979 434.997 319.057C433.361 321.345 431.085 323.097 428.455 324.094C425.127 325.439 421.555 326.077 417.967 325.97C414.476 325.941 411.007 325.397 407.675 324.356Z" fill="#CF2026"/>
<rect x="40" y="371" width="397" height="87" rx="10" fill="#CF2026"/>
<path d="M89.5866 433V396.636H103.223C106.017 396.636 108.36 397.157 110.254 398.199C112.16 399.241 113.598 400.673 114.569 402.496C115.551 404.307 116.043 406.366 116.043 408.675C116.043 411.007 115.551 413.078 114.569 414.889C113.586 416.7 112.136 418.127 110.219 419.168C108.301 420.198 105.94 420.713 103.134 420.713H94.0966V415.298H102.246C103.88 415.298 105.218 415.013 106.259 414.445C107.301 413.877 108.07 413.096 108.567 412.102C109.076 411.107 109.331 409.965 109.331 408.675C109.331 407.384 109.076 406.248 108.567 405.266C108.07 404.283 107.295 403.52 106.241 402.975C105.2 402.419 103.856 402.141 102.211 402.141H96.174V433H89.5866ZM134.881 433H127.85L140.652 396.636H148.784L161.604 433H154.572L144.86 404.094H144.576L134.881 433ZM135.112 418.742H154.288V424.033H135.112V418.742ZM178.893 433V396.636H192.53C195.323 396.636 197.667 397.122 199.561 398.092C201.467 399.063 202.905 400.424 203.876 402.176C204.858 403.916 205.349 405.946 205.349 408.266C205.349 410.598 204.852 412.622 203.858 414.339C202.875 416.043 201.425 417.363 199.508 418.298C197.59 419.222 195.234 419.683 192.441 419.683H182.729V414.214H191.553C193.187 414.214 194.524 413.99 195.566 413.54C196.608 413.078 197.377 412.409 197.874 411.533C198.383 410.646 198.638 409.557 198.638 408.266C198.638 406.976 198.383 405.875 197.874 404.964C197.365 404.04 196.59 403.342 195.548 402.869C194.506 402.383 193.163 402.141 191.518 402.141H185.481V433H178.893ZM197.679 416.523L206.681 433H199.33L190.488 416.523H197.679ZM222.315 402.158V396.636H251.328V402.158H240.088V433H233.554V402.158H222.315ZM299.303 396.636V433H293.444L276.31 408.231H276.008V433H269.421V396.636H275.316L292.432 421.423H292.752V396.636H299.303ZM318.981 433V396.636H342.632V402.158H325.569V412.031H341.407V417.553H325.569V427.478H342.774V433H318.981ZM361.852 433V396.636H375.489C378.282 396.636 380.626 397.122 382.52 398.092C384.426 399.063 385.864 400.424 386.835 402.176C387.817 403.916 388.308 405.946 388.308 408.266C388.308 410.598 387.811 412.622 386.817 414.339C385.834 416.043 384.384 417.363 382.467 418.298C380.549 419.222 378.193 419.683 375.4 419.683H365.688V414.214H374.512C376.146 414.214 377.483 413.99 378.525 413.54C379.567 413.078 380.336 412.409 380.833 411.533C381.342 410.646 381.597 409.557 381.597 408.266C381.597 406.976 381.342 405.875 380.833 404.964C380.324 404.04 379.549 403.342 378.507 402.869C377.465 402.383 376.122 402.141 374.477 402.141H368.44V433H361.852ZM380.638 416.523L389.64 433H382.289L373.447 416.523H380.638Z" fill="#121212"/>
</svg>
